M48
; DRILL file KiCad 10.0.1 date 2026-05-03T17:24:05
; FORMAT={-:-/ absolute / inch / decimal}
; #@! TF.CreationDate,2026-05-03T17:24:05-04:00
; #@! TF.GenerationSoftware,Kicad,Pcbnew,10.0.1
; #@! TF.FileFunction,Plated,1,4,PTH
FMAT,2
INCH
; #@! TA.AperFunction,Plated,PTH,ComponentDrill
T1C0.0079
; #@! TA.AperFunction,Plated,PTH,ViaDrill
T2C0.0118
; #@! TA.AperFunction,Plated,PTH,ViaDrill
T3C0.0157
; #@! TA.AperFunction,Plated,PTH,ComponentDrill
T4C0.0295
; #@! TA.AperFunction,Plated,PTH,ComponentDrill
T5C0.0315
; #@! TA.AperFunction,Plated,PTH,ComponentDrill
T6C0.0394
; #@! TA.AperFunction,Plated,PTH,ComponentDrill
T7C0.0402
; #@! TA.AperFunction,Plated,PTH,ComponentDrill
T8C0.0433
; #@! TA.AperFunction,Plated,PTH,ComponentDrill
T9C0.0520
; #@! TA.AperFunction,Plated,PTH,ComponentDrill
T10C0.0866
%
G90
G05
T1
X0.8839Y-2.5689
X0.8839Y-2.6083
X0.8839Y-2.6476
X0.9311Y-2.5689
X0.9311Y-2.6083
X0.9311Y-2.6476
X0.9783Y-2.5689
X0.9783Y-2.6083
X0.9783Y-2.6476
X0.9953Y-0.8086
X0.9953Y-0.8479
X0.9953Y-0.8873
X1.0256Y-2.5689
X1.0256Y-2.6083
X1.0256Y-2.6476
X1.0347Y-0.8086
X1.0347Y-0.8479
X1.0347Y-0.8873
X1.0741Y-0.8086
X1.0741Y-0.8479
X1.0741Y-0.8873
X1.1134Y-0.8086
X1.1134Y-0.8479
X1.1134Y-0.8873
X1.1528Y-0.8086
X1.1528Y-0.8479
X1.1528Y-0.8873
X1.1922Y-0.8086
X1.1922Y-0.8479
X1.1922Y-0.8873
X1.2315Y-0.8086
X1.2315Y-0.8479
X1.2315Y-0.8873
X1.5726Y-0.8071
X1.5726Y-0.8465
X1.5726Y-0.8858
X1.612Y-0.8071
X1.612Y-0.8465
X1.612Y-0.8858
X1.6513Y-0.8071
X1.6513Y-0.8465
X1.6513Y-0.8858
X1.6907Y-0.8071
X1.6907Y-0.8465
X1.6907Y-0.8858
X1.7301Y-0.8071
X1.7301Y-0.8465
X1.7301Y-0.8858
X1.7694Y-0.8071
X1.7694Y-0.8465
X1.7694Y-0.8858
X1.8088Y-0.8071
X1.8088Y-0.8465
X1.8088Y-0.8858
X2.0748Y-2.5689
X2.0748Y-2.6083
X2.0748Y-2.6476
X2.122Y-2.5689
X2.122Y-2.6083
X2.122Y-2.6476
X2.1693Y-2.5689
X2.1693Y-2.6083
X2.1693Y-2.6476
X2.2165Y-2.5689
X2.2165Y-2.6083
X2.2165Y-2.6476
T2
X0.8976Y-2.3543
X0.8976Y-2.378
X0.8976Y-2.4016
X0.8976Y-2.4252
X0.9213Y-2.3543
X0.9213Y-2.378
X0.9213Y-2.4016
X0.9213Y-2.4252
X0.9449Y-2.3543
X0.9449Y-2.378
X0.9449Y-2.4016
X0.9449Y-2.4252
X0.9489Y-0.5197
X0.9489Y-0.5433
X0.9489Y-0.5669
X0.9489Y-0.5906
X0.9685Y-2.3543
X0.9685Y-2.378
X0.9685Y-2.4016
X0.9685Y-2.4252
X0.9725Y-0.5197
X0.9725Y-0.5433
X0.9725Y-0.5669
X0.9725Y-0.5906
X0.9961Y-0.5197
X0.9961Y-0.5433
X0.9961Y-0.5669
X0.9961Y-0.5906
X1.0198Y-0.5197
X1.0198Y-0.5433
X1.0198Y-0.5669
X1.0198Y-0.5906
X1.0866Y-2.3543
X1.0866Y-2.378
X1.0866Y-2.4016
X1.0866Y-2.4252
X1.1102Y-2.3543
X1.1102Y-2.378
X1.1102Y-2.4016
X1.1102Y-2.4252
X1.1339Y-2.3543
X1.1339Y-2.378
X1.1339Y-2.4016
X1.1339Y-2.4252
X1.1575Y-2.3543
X1.1575Y-2.378
X1.1575Y-2.4016
X1.1575Y-2.4252
X1.311Y-0.5197
X1.311Y-0.5433
X1.311Y-0.5669
X1.311Y-0.5906
X1.3346Y-0.5197
X1.3346Y-0.5433
X1.3346Y-0.5669
X1.3346Y-0.5906
X1.3583Y-0.5197
X1.3583Y-0.5433
X1.3583Y-0.5669
X1.3583Y-0.5906
X1.3819Y-0.5197
X1.3819Y-0.5433
X1.3819Y-0.5669
X1.3819Y-0.5906
X1.5512Y-0.5197
X1.5512Y-0.5433
X1.5512Y-0.5669
X1.5512Y-0.5906
X1.5748Y-0.5197
X1.5748Y-0.5433
X1.5748Y-0.5669
X1.5748Y-0.5906
X1.5984Y-0.5197
X1.5984Y-0.5433
X1.5984Y-0.5669
X1.5984Y-0.5906
X1.622Y-0.5197
X1.622Y-0.5433
X1.622Y-0.5669
X1.622Y-0.5906
X1.8898Y-0.5197
X1.8898Y-0.5433
X1.8898Y-0.5669
X1.8898Y-0.5906
X1.9134Y-0.5197
X1.9134Y-0.5433
X1.9134Y-0.5669
X1.9134Y-0.5906
X1.937Y-0.5197
X1.937Y-0.5433
X1.937Y-0.5669
X1.937Y-0.5906
X1.9606Y-0.5197
X1.9606Y-0.5433
X1.9606Y-0.5669
X1.9606Y-0.5906
X2.0945Y-2.3543
X2.0945Y-2.378
X2.0945Y-2.4016
X2.0945Y-2.4252
X2.1181Y-2.3543
X2.1181Y-2.378
X2.1181Y-2.4016
X2.1181Y-2.4252
X2.1417Y-2.3543
X2.1417Y-2.378
X2.1417Y-2.4016
X2.1417Y-2.4252
X2.1654Y-2.3543
X2.1654Y-2.378
X2.1654Y-2.4016
X2.1654Y-2.4252
X2.2756Y-2.3543
X2.2756Y-2.378
X2.2756Y-2.4016
X2.2756Y-2.4252
X2.2992Y-2.3543
X2.2992Y-2.378
X2.2992Y-2.4016
X2.2992Y-2.4252
X2.3228Y-2.3543
X2.3228Y-2.378
X2.3228Y-2.4016
X2.3228Y-2.4252
X2.3465Y-2.3543
X2.3465Y-2.378
X2.3465Y-2.4016
X2.3465Y-2.4252
T3
X0.0709Y-2.2205
X0.2559Y-2.2638
X0.3307Y-1.1575
X0.3543Y-2.2441
X0.4724Y-1.0531
X0.4961Y-1.5591
X0.4961Y-2.2441
X0.5906Y-0.9921
X0.6102Y-1.6929
X0.7972Y-1.1614
X0.8071Y-2.6969
X0.8465Y-1.4862
X0.909Y-1.0448
X0.9601Y-1.096
X0.9847Y-1.1603
X1.0394Y-1.5354
X1.063Y-1.937
X1.0692Y-1.0382
X1.0866Y-1.1246
X1.1036Y-1.0153
X1.1102Y-2.2441
X1.2338Y-1.0251
X1.252Y-2.6457
X1.3189Y-1.0433
X1.3386Y-1.1516
X1.3878Y-2.2736
X1.4764Y-2.2736
X1.4862Y-1.0433
X1.5354Y-2.7953
X1.5374Y-1.0945
X1.5453Y-2.2736
X1.5551Y-1.5453
X1.6063Y-2.6457
X1.6465Y-1.0367
X1.6809Y-1.0138
X1.811Y-1.0236
X1.8898Y-1.6772
X1.9134Y-1.1102
X1.9488Y-1.0521
X1.9882Y-2.7461
X2.126Y-1.1024
X2.1457Y-1.1783
X2.1496Y-1.3465
X2.1654Y-1.7986
X2.2933Y-2.7264
X2.3031Y-2.0472
X2.315Y-0.9685
X2.315Y-1.7244
X2.315Y-1.8898
X2.3228Y-1.3484
X2.7264Y-1.624
X2.7402Y-0.8504
X2.7638Y-1.8898
X3.002Y-1.8602
X3.0472Y-1.2047
X3.0709Y-2.4409
X3.1102Y-1.8307
X3.1398Y-2.313
X3.1496Y-1.6535
X3.1654Y-2.0787
X3.1988Y-1.378
X3.2283Y-1.6634
X3.2598Y-0.9685
X3.3071Y-2.2933
X3.3563Y-2.6378
X3.3661Y-1.1417
X3.4252Y-2.3386
X3.4724Y-1.6063
X3.4724Y-1.8661
X3.4724Y-2.1024
X3.4724Y-3.0
X3.4961Y-0.7795
X3.4961Y-1.0394
X3.5197Y-1.9606
X3.6142Y-2.622
X3.8386Y-0.3543
X3.8386Y-0.8661
X3.8583Y-1.1811
T4
X0.4724Y-2.9921
X0.5512Y-2.9921
X0.748Y-2.9921
X0.8268Y-2.9921
X1.0236Y-2.9921
X1.1024Y-2.9921
X1.2992Y-2.9921
X1.378Y-2.9921
X1.6929Y-2.9921
X1.7717Y-2.9921
X1.9685Y-2.9921
X2.0472Y-2.9921
X2.2441Y-2.9921
X2.3228Y-2.9921
X2.5197Y-2.9921
X2.5984Y-2.9921
X2.874Y-2.9921
X2.9528Y-2.9921
X3.1496Y-2.9921
X3.2283Y-2.9921
X3.5827Y-2.4803
X3.6614Y-1.5354
X3.6614Y-1.7717
X3.6614Y-2.0079
X3.6614Y-2.2441
X3.6614Y-2.4803
X3.6614Y-2.7165
X3.7402Y-1.5354
X3.7402Y-1.7717
X3.7402Y-2.0079
X3.7402Y-2.2441
X3.7402Y-2.4803
X3.7402Y-2.7165
X3.8189Y-1.5354
X3.8189Y-1.7717
X3.8189Y-2.0079
X3.8189Y-2.2441
X3.8189Y-2.4803
X3.8189Y-2.7165
T5
X0.6299Y-2.483
X0.6299Y-2.5814
X0.689Y-0.7212
X0.689Y-0.8196
X2.1161Y-0.7185
X2.1161Y-0.8169
X2.5295Y-2.483
X2.5295Y-2.5814
T6
X0.1165Y-2.6378
X0.2165Y-2.6378
X0.3165Y-2.6378
X0.4026Y-0.9565
X0.5026Y-0.9565
X2.6256Y-2.2146
X2.7256Y-2.2146
X2.7854Y-0.9831
X2.7854Y-1.0831
X2.7854Y-1.1831
X2.7854Y-1.2831
X2.7854Y-1.3831
X2.7854Y-1.4831
X2.7854Y-1.5831
X2.7854Y-1.6831
X2.8256Y-2.2146
X2.9256Y-2.2146
X3.1004Y-0.8366
X3.2004Y-0.8366
X3.3004Y-0.8366
X3.4004Y-0.8366
T7
X0.1138Y-1.3429
X0.1138Y-2.0429
X0.2138Y-1.3429
X0.2138Y-2.0429
X0.3138Y-1.3429
X0.3138Y-2.0429
X0.4138Y-1.3429
X0.4138Y-2.0429
X0.5138Y-1.3429
X0.5138Y-2.0429
X0.6138Y-1.3429
X0.6138Y-2.0429
X0.7138Y-1.3429
X0.7138Y-2.0429
X0.8138Y-1.3429
X0.8138Y-2.0429
X0.9138Y-1.3429
X0.9138Y-2.0429
X1.0138Y-1.3429
X1.0138Y-2.0429
X1.1138Y-1.3429
X1.1138Y-2.0429
X1.2138Y-1.3429
X1.2138Y-2.0429
X1.3138Y-1.3429
X1.3138Y-2.0429
X1.4138Y-1.3429
X1.4138Y-2.0429
X1.5138Y-1.3429
X1.5138Y-2.0429
X1.6138Y-1.3429
X1.6138Y-2.0429
X1.7138Y-1.3429
X1.7138Y-2.0429
X1.8138Y-1.3429
X1.8138Y-2.0429
X1.9138Y-1.3429
X1.9138Y-2.0429
X2.0138Y-1.3429
X2.0138Y-2.0429
T8
X0.5915Y-0.0974
X0.5915Y-0.3533
X0.7687Y-0.0974
X0.7687Y-0.3533
T9
X0.2756Y-0.4331
X0.2756Y-0.6299
X1.0636Y-0.2756
X1.2604Y-0.2756
X1.6437Y-0.2756
X1.8406Y-0.2756
X2.3228Y-0.2756
X2.5197Y-0.2756
X2.7953Y-0.2756
X2.9921Y-0.2756
X3.2591Y-0.2756
X3.4559Y-0.2756
T10
X0.1969Y-0.1969
M30
