M48
; DRILL file {KiCad 9.0.2} date 2025-07-29T15:09:34-0400
; FORMAT={-:-/ absolute / inch / decimal}
; #@! TF.CreationDate,2025-07-29T15:09:34-04:00
; #@! TF.GenerationSoftware,Kicad,Pcbnew,9.0.2
; #@! TF.FileFunction,Plated,1,2,PTH
FMAT,2
INCH
; #@! TA.AperFunction,Plated,PTH,ComponentDrill
T1C0.0079
; #@! TA.AperFunction,Plated,PTH,ViaDrill
T2C0.0157
; #@! TA.AperFunction,Plated,PTH,ComponentDrill
T3C0.0295
; #@! TA.AperFunction,Plated,PTH,ComponentDrill
T4C0.0315
; #@! TA.AperFunction,Plated,PTH,ComponentDrill
T5C0.0394
; #@! TA.AperFunction,Plated,PTH,ComponentDrill
T6C0.0402
; #@! TA.AperFunction,Plated,PTH,ComponentDrill
T7C0.0520
; #@! TA.AperFunction,Plated,PTH,ComponentDrill
T8C0.0866
%
G90
G05
T1
X0.689Y-0.6732
X0.689Y-0.7283
X0.7283Y-0.6732
X0.7283Y-0.7283
X0.7677Y-0.6732
X0.7677Y-0.7283
X1.0218Y-0.6732
X1.0218Y-0.7283
X1.0611Y-0.6732
X1.0611Y-0.7283
X1.1005Y-0.6732
X1.1005Y-0.7283
X1.3583Y-0.6732
X1.3583Y-0.7283
X1.3976Y-0.6732
X1.3976Y-0.7283
X1.437Y-0.6732
X1.437Y-0.7283
X1.6929Y-0.6732
X1.6929Y-0.7283
X1.7323Y-0.6732
X1.7323Y-0.7283
X1.7717Y-0.6732
X1.7717Y-0.7283
T2
X0.4232Y-2.4705
X0.6988Y-2.4705
X0.748Y-0.9843
X0.7972Y-1.0531
X0.8465Y-0.9055
X0.9744Y-2.4705
X1.1614Y-0.9055
X1.25Y-2.4705
X1.3189Y-2.5492
X1.4961Y-0.9055
X1.6437Y-2.4705
X1.7126Y-2.5492
X1.8307Y-0.9055
X1.9193Y-2.4705
X1.9882Y-2.5492
X2.1949Y-2.4705
X2.2638Y-2.5492
X2.3622Y-1.0335
X2.372Y-1.4173
X2.4705Y-2.4705
X2.5197Y-2.5591
X2.7362Y-2.0866
X2.8051Y-2.0768
X2.874Y-0.9055
X2.9429Y-2.4311
X2.9921Y-2.3917
X3.0315Y-0.9843
X3.2283Y-2.313
X3.248Y-1.3681
X3.3366Y-2.6378
X3.376Y-2.3425
X3.4055Y-1.4567
X3.4646Y-1.3484
X3.6319Y-1.0728
X3.6713Y-1.378
T3
X0.4724Y-2.9921
X0.5512Y-2.9921
X0.748Y-2.9921
X0.8268Y-2.9921
X1.0236Y-2.9921
X1.1024Y-2.9921
X1.2992Y-2.9921
X1.378Y-2.9921
X1.6929Y-2.9921
X1.7717Y-2.9921
X1.9685Y-2.9921
X2.0472Y-2.9921
X2.2441Y-2.9921
X2.3228Y-2.9921
X2.5197Y-2.9921
X2.5984Y-2.9921
X3.1496Y-2.9921
X3.2283Y-2.9921
X3.4252Y-2.9921
X3.5039Y-2.9921
X3.5827Y-2.4803
X3.6614Y-1.5354
X3.6614Y-1.7717
X3.6614Y-2.0079
X3.6614Y-2.2441
X3.6614Y-2.4803
X3.6614Y-2.7165
X3.7402Y-1.5354
X3.7402Y-1.7717
X3.7402Y-2.0079
X3.7402Y-2.2441
X3.7402Y-2.4803
X3.7402Y-2.7165
X3.8189Y-1.5354
X3.8189Y-1.7717
X3.8189Y-2.0079
X3.8189Y-2.2441
X3.8189Y-2.4803
X3.8189Y-2.7165
T4
X0.2362Y-2.5394
X0.2362Y-2.6378
X0.8071Y-0.3543
X0.8071Y-0.4528
X1.1399Y-0.3543
X1.1399Y-0.4528
X1.4764Y-0.3543
X1.4764Y-0.4528
X1.811Y-0.3543
X1.811Y-0.4528
X2.8248Y-2.5394
X2.8248Y-2.6378
T5
X0.1138Y-2.2441
X0.1142Y-1.1417
X0.2138Y-2.2441
X0.2142Y-1.1417
X0.3138Y-2.2441
X0.3142Y-1.1417
X0.4138Y-2.2441
X0.4142Y-1.1417
X0.5138Y-2.2441
X0.5142Y-1.1417
X0.6138Y-2.2441
X0.6142Y-1.1417
X0.7138Y-2.2441
X0.7142Y-1.1417
X0.7283Y-0.1575
X0.8138Y-2.2441
X0.8142Y-1.1417
X0.8268Y-0.1575
X0.9138Y-2.2441
X0.9142Y-1.1417
X1.0138Y-2.2441
X1.0142Y-1.1417
X1.0611Y-0.1575
X1.1138Y-2.2441
X1.1142Y-1.1417
X1.1595Y-0.1575
X1.2138Y-2.2441
X1.2142Y-1.1417
X1.3138Y-2.2441
X1.3142Y-1.1417
X1.3976Y-0.1575
X1.4138Y-2.2441
X1.4142Y-1.1417
X1.4961Y-0.1575
X1.5138Y-2.2441
X1.5142Y-1.1417
X1.6138Y-2.2441
X1.6142Y-1.1417
X1.7138Y-2.2441
X1.7142Y-1.1417
X1.7323Y-0.1575
X1.8138Y-2.2441
X1.8142Y-1.1417
X1.8307Y-0.1575
X1.9138Y-2.2441
X1.9142Y-1.1417
X2.0138Y-2.2441
X2.0142Y-1.1417
X2.2047Y-1.5929
X2.2047Y-1.6929
X2.2047Y-1.7929
X2.6091Y-1.1067
X2.6091Y-1.2067
X2.6091Y-1.3067
X2.6091Y-1.4067
X2.6091Y-1.5067
X2.6091Y-1.6067
X2.6091Y-1.7067
X2.6091Y-1.8067
T6
X0.1138Y-1.3429
X0.1138Y-2.0429
X0.2138Y-1.3429
X0.2138Y-2.0429
X0.3138Y-1.3429
X0.3138Y-2.0429
X0.4138Y-1.3429
X0.4138Y-2.0429
X0.5138Y-1.3429
X0.5138Y-2.0429
X0.6138Y-1.3429
X0.6138Y-2.0429
X0.7138Y-1.3429
X0.7138Y-2.0429
X0.8138Y-1.3429
X0.8138Y-2.0429
X0.9138Y-1.3429
X0.9138Y-2.0429
X1.0138Y-1.3429
X1.0138Y-2.0429
X1.1138Y-1.3429
X1.1138Y-2.0429
X1.2138Y-1.3429
X1.2138Y-2.0429
X1.3138Y-1.3429
X1.3138Y-2.0429
X1.4138Y-1.3429
X1.4138Y-2.0429
X1.5138Y-1.3429
X1.5138Y-2.0429
X1.6138Y-1.3429
X1.6138Y-2.0429
X1.7138Y-1.3429
X1.7138Y-2.0429
X1.8138Y-1.3429
X1.8138Y-2.0429
X1.9138Y-1.3429
X1.9138Y-2.0429
X2.0047Y-1.5929
X2.0047Y-1.6929
X2.0047Y-1.7929
X2.0138Y-1.3429
X2.0138Y-2.0429
T7
X0.2756Y-0.4331
X0.2756Y-0.6299
X2.3228Y-0.2756
X2.5197Y-0.2756
X2.7953Y-0.2756
X2.9921Y-0.2756
X3.2677Y-0.2756
X3.4646Y-0.2756
T8
X0.1969Y-0.1969
M30
