%TF.GenerationSoftware,KiCad,Pcbnew,9.0.2*%
%TF.CreationDate,2025-07-29T15:09:34-04:00*%
%TF.ProjectId,pubmarine-submarine,7075626d-6172-4696-9e65-2d7375626d61,rev?*%
%TF.SameCoordinates,Original*%
%TF.FileFunction,Soldermask,Top*%
%TF.FilePolarity,Negative*%
%FSLAX46Y46*%
G04 Gerber Fmt 4.6, Leading zero omitted, Abs format (unit mm)*
G04 Created by KiCad (PCBNEW 9.0.2) date 2025-07-29 15:09:34*
%MOMM*%
%LPD*%
G01*
G04 APERTURE LIST*
G04 Aperture macros list*
%AMRoundRect*
0 Rectangle with rounded corners*
0 $1 Rounding radius*
0 $2 $3 $4 $5 $6 $7 $8 $9 X,Y pos of 4 corners*
0 Add a 4 corners polygon primitive as box body*
4,1,4,$2,$3,$4,$5,$6,$7,$8,$9,$2,$3,0*
0 Add four circle primitives for the rounded corners*
1,1,$1+$1,$2,$3*
1,1,$1+$1,$4,$5*
1,1,$1+$1,$6,$7*
1,1,$1+$1,$8,$9*
0 Add four rect primitives between the rounded corners*
20,1,$1+$1,$2,$3,$4,$5,0*
20,1,$1+$1,$4,$5,$6,$7,0*
20,1,$1+$1,$6,$7,$8,$9,0*
20,1,$1+$1,$8,$9,$2,$3,0*%
%AMFreePoly0*
4,1,23,0.500000,-0.750000,0.000000,-0.750000,0.000000,-0.745722,-0.065263,-0.745722,-0.191342,-0.711940,-0.304381,-0.646677,-0.396677,-0.554381,-0.461940,-0.441342,-0.495722,-0.315263,-0.495722,-0.250000,-0.500000,-0.250000,-0.500000,0.250000,-0.495722,0.250000,-0.495722,0.315263,-0.461940,0.441342,-0.396677,0.554381,-0.304381,0.646677,-0.191342,0.711940,-0.065263,0.745722,0.000000,0.745722,
0.000000,0.750000,0.500000,0.750000,0.500000,-0.750000,0.500000,-0.750000,$1*%
%AMFreePoly1*
4,1,23,0.000000,0.745722,0.065263,0.745722,0.191342,0.711940,0.304381,0.646677,0.396677,0.554381,0.461940,0.441342,0.495722,0.315263,0.495722,0.250000,0.500000,0.250000,0.500000,-0.250000,0.495722,-0.250000,0.495722,-0.315263,0.461940,-0.441342,0.396677,-0.554381,0.304381,-0.646677,0.191342,-0.711940,0.065263,-0.745722,0.000000,-0.745722,0.000000,-0.750000,-0.500000,-0.750000,
-0.500000,0.750000,0.000000,0.750000,0.000000,0.745722,0.000000,0.745722,$1*%
G04 Aperture macros list end*
%ADD10RoundRect,0.250000X0.350000X0.625000X-0.350000X0.625000X-0.350000X-0.625000X0.350000X-0.625000X0*%
%ADD11O,1.200000X1.750000*%
%ADD12C,4.400000*%
%ADD13R,1.600000X1.600000*%
%ADD14C,1.600000*%
%ADD15RoundRect,0.237500X-0.237500X0.250000X-0.237500X-0.250000X0.237500X-0.250000X0.237500X0.250000X0*%
%ADD16RoundRect,0.250000X0.600000X0.750000X-0.600000X0.750000X-0.600000X-0.750000X0.600000X-0.750000X0*%
%ADD17O,1.700000X2.000000*%
%ADD18RoundRect,0.237500X-0.237500X0.300000X-0.237500X-0.300000X0.237500X-0.300000X0.237500X0.300000X0*%
%ADD19RoundRect,0.250000X-0.350000X-0.625000X0.350000X-0.625000X0.350000X0.625000X-0.350000X0.625000X0*%
%ADD20RoundRect,0.090000X0.360000X-0.660000X0.360000X0.660000X-0.360000X0.660000X-0.360000X-0.660000X0*%
%ADD21RoundRect,0.200000X-0.200000X0.750000X-0.200000X-0.750000X0.200000X-0.750000X0.200000X0.750000X0*%
%ADD22RoundRect,0.150000X0.150000X-0.820000X0.150000X0.820000X-0.150000X0.820000X-0.150000X-0.820000X0*%
%ADD23R,3.510000X2.620000*%
%ADD24R,3.960000X1.980000*%
%ADD25O,3.960000X1.980000*%
%ADD26FreePoly0,0.000000*%
%ADD27FreePoly1,0.000000*%
%ADD28O,1.700000X1.700000*%
%ADD29R,1.700000X3.500000*%
%ADD30R,1.700000X1.700000*%
%ADD31R,3.500000X1.700000*%
%ADD32C,1.700000*%
%ADD33RoundRect,0.225000X-0.225000X-0.375000X0.225000X-0.375000X0.225000X0.375000X-0.225000X0.375000X0*%
%ADD34RoundRect,0.150000X-0.512500X-0.150000X0.512500X-0.150000X0.512500X0.150000X-0.512500X0.150000X0*%
%ADD35RoundRect,0.237500X-0.250000X-0.237500X0.250000X-0.237500X0.250000X0.237500X-0.250000X0.237500X0*%
%ADD36R,1.980000X3.960000*%
%ADD37O,1.980000X3.960000*%
%ADD38RoundRect,0.237500X0.287500X0.237500X-0.287500X0.237500X-0.287500X-0.237500X0.287500X-0.237500X0*%
%ADD39RoundRect,0.237500X-0.300000X-0.237500X0.300000X-0.237500X0.300000X0.237500X-0.300000X0.237500X0*%
%ADD40RoundRect,0.237500X0.250000X0.237500X-0.250000X0.237500X-0.250000X-0.237500X0.250000X-0.237500X0*%
G04 APERTURE END LIST*
%TO.C,JP1*%
G36*
X8100000Y-22250000D02*
G01*
X8400000Y-22250000D01*
X8400000Y-23750000D01*
X8100000Y-23750000D01*
X8100000Y-22250000D01*
G37*
%TD*%
D10*
%TO.C,J18*%
X97000000Y-39000000D03*
D11*
X95000000Y-39000000D03*
X93000000Y-39000000D03*
%TD*%
D12*
%TO.C,H4*%
X5000000Y-5000000D03*
%TD*%
D13*
%TO.C,C7*%
X28952500Y-9000000D03*
D14*
X28952500Y-11500000D03*
%TD*%
D15*
%TO.C,R11*%
X60250000Y-65500000D03*
X60250000Y-67325000D03*
%TD*%
D16*
%TO.C,J21*%
X38000000Y-4000000D03*
D17*
X35500000Y-4000000D03*
%TD*%
D16*
%TO.C,J19*%
X21000000Y-4000000D03*
D17*
X18500000Y-4000000D03*
%TD*%
D18*
%TO.C,C10*%
X47500000Y-15275000D03*
X47500000Y-17000000D03*
%TD*%
D19*
%TO.C,J8*%
X43000000Y-76000000D03*
D11*
X45000000Y-76000000D03*
%TD*%
D20*
%TO.C,D9*%
X94350000Y-32450000D03*
X97650000Y-32450000D03*
X97650000Y-27550000D03*
X94350000Y-27550000D03*
%TD*%
D13*
%TO.C,C2*%
X71750000Y-64500000D03*
D14*
X71750000Y-67000000D03*
%TD*%
D21*
%TO.C,Q4*%
X34700000Y-67000000D03*
X32800000Y-67000000D03*
X33750000Y-70000000D03*
%TD*%
D15*
%TO.C,R15*%
X60250000Y-69087500D03*
X60250000Y-70912500D03*
%TD*%
D13*
%TO.C,C11*%
X46000000Y-9000000D03*
D14*
X46000000Y-11500000D03*
%TD*%
D19*
%TO.C,J10*%
X57000000Y-76000000D03*
D11*
X59000000Y-76000000D03*
%TD*%
D22*
%TO.C,U4*%
X25047500Y-20280000D03*
X26317500Y-20280000D03*
X27587500Y-20280000D03*
X28857500Y-20280000D03*
X28857500Y-15320000D03*
X27587500Y-15320000D03*
X26317500Y-15320000D03*
X25047500Y-15320000D03*
D23*
X26952500Y-17800000D03*
%TD*%
D24*
%TO.C,J12*%
X7000000Y-11000000D03*
D25*
X7000000Y-16000000D03*
%TD*%
D26*
%TO.C,JP1*%
X7600000Y-23000000D03*
D27*
X8900000Y-23000000D03*
%TD*%
D15*
%TO.C,R16*%
X67250000Y-69087500D03*
X67250000Y-70912500D03*
%TD*%
D22*
%TO.C,U5*%
X33595000Y-20280000D03*
X34865000Y-20280000D03*
X36135000Y-20280000D03*
X37405000Y-20280000D03*
X37405000Y-15320000D03*
X36135000Y-15320000D03*
X34865000Y-15320000D03*
X33595000Y-15320000D03*
D23*
X35500000Y-17800000D03*
%TD*%
D10*
%TO.C,J16*%
X97000000Y-51000000D03*
D11*
X95000000Y-51000000D03*
X93000000Y-51000000D03*
%TD*%
D28*
%TO.C,U1*%
X2890000Y-51890000D03*
D29*
X2890000Y-52790000D03*
D28*
X5430000Y-51890000D03*
D29*
X5430000Y-52790000D03*
D30*
X7970000Y-51890000D03*
D29*
X7970000Y-52790000D03*
D28*
X10510000Y-51890000D03*
D29*
X10510000Y-52790000D03*
D28*
X13050000Y-51890000D03*
D29*
X13050000Y-52790000D03*
D28*
X15590000Y-51890000D03*
D29*
X15590000Y-52790000D03*
D28*
X18130000Y-51890000D03*
D29*
X18130000Y-52790000D03*
D30*
X20670000Y-51890000D03*
D29*
X20670000Y-52790000D03*
D28*
X23210000Y-51890000D03*
D29*
X23210000Y-52790000D03*
D28*
X25750000Y-51890000D03*
D29*
X25750000Y-52790000D03*
D28*
X28290000Y-51890000D03*
D29*
X28290000Y-52790000D03*
D28*
X30830000Y-51890000D03*
D29*
X30830000Y-52790000D03*
D30*
X33370000Y-51890000D03*
D29*
X33370000Y-52790000D03*
D28*
X35910000Y-51890000D03*
D29*
X35910000Y-52790000D03*
D28*
X38450000Y-51890000D03*
D29*
X38450000Y-52790000D03*
D28*
X40990000Y-51890000D03*
D29*
X40990000Y-52790000D03*
D28*
X43530000Y-51890000D03*
D29*
X43530000Y-52790000D03*
D30*
X46070000Y-51890000D03*
D29*
X46070000Y-52790000D03*
D28*
X48610000Y-51890000D03*
D29*
X48610000Y-52790000D03*
D28*
X51150000Y-51890000D03*
D29*
X51150000Y-52790000D03*
D28*
X51150000Y-34110000D03*
D29*
X51150000Y-33210000D03*
D28*
X48610000Y-34110000D03*
D29*
X48610000Y-33210000D03*
D30*
X46070000Y-34110000D03*
D29*
X46070000Y-33210000D03*
D28*
X43530000Y-34110000D03*
D29*
X43530000Y-33210000D03*
D28*
X40990000Y-34110000D03*
D29*
X40990000Y-33210000D03*
D28*
X38450000Y-34110000D03*
D29*
X38450000Y-33210000D03*
D28*
X35910000Y-34110000D03*
D29*
X35910000Y-33210000D03*
D30*
X33370000Y-34110000D03*
D29*
X33370000Y-33210000D03*
D28*
X30830000Y-34110000D03*
D29*
X30830000Y-33210000D03*
D28*
X28290000Y-34110000D03*
D29*
X28290000Y-33210000D03*
D28*
X25750000Y-34110000D03*
D29*
X25750000Y-33210000D03*
D28*
X23210000Y-34110000D03*
D29*
X23210000Y-33210000D03*
D30*
X20670000Y-34110000D03*
D29*
X20670000Y-33210000D03*
D28*
X18130000Y-34110000D03*
D29*
X18130000Y-33210000D03*
D28*
X15590000Y-34110000D03*
D29*
X15590000Y-33210000D03*
D28*
X13050000Y-34110000D03*
D29*
X13050000Y-33210000D03*
D28*
X10510000Y-34110000D03*
D29*
X10510000Y-33210000D03*
D30*
X7970000Y-34110000D03*
D29*
X7970000Y-33210000D03*
D28*
X5430000Y-34110000D03*
D29*
X5430000Y-33210000D03*
D28*
X2890000Y-34110000D03*
D29*
X2890000Y-33210000D03*
D28*
X50920000Y-45540000D03*
D31*
X51820000Y-45540000D03*
D30*
X50920000Y-43000000D03*
D31*
X51820000Y-43000000D03*
D28*
X50920000Y-40460000D03*
D31*
X51820000Y-40460000D03*
%TD*%
D22*
%TO.C,U3*%
X16595000Y-20280000D03*
X17865000Y-20280000D03*
X19135000Y-20280000D03*
X20405000Y-20280000D03*
X20405000Y-15320000D03*
X19135000Y-15320000D03*
X17865000Y-15320000D03*
X16595000Y-15320000D03*
D23*
X18500000Y-17800000D03*
%TD*%
D19*
%TO.C,J4*%
X26000000Y-76000000D03*
D11*
X28000000Y-76000000D03*
%TD*%
D30*
%TO.C,U7*%
X66270000Y-28110000D03*
D32*
X66270000Y-30650000D03*
X66270000Y-33190000D03*
X66270000Y-35730000D03*
X66270000Y-38270000D03*
X66270000Y-40810000D03*
X66270000Y-43350000D03*
X66270000Y-45890000D03*
%TD*%
D20*
%TO.C,D10*%
X94350000Y-24450000D03*
X97650000Y-24450000D03*
X97650000Y-19550000D03*
X94350000Y-19550000D03*
%TD*%
D33*
%TO.C,D4*%
X31350000Y-72500000D03*
X34650000Y-72500000D03*
%TD*%
D19*
%TO.C,J11*%
X64000000Y-76000000D03*
D11*
X66000000Y-76000000D03*
%TD*%
D18*
%TO.C,C8*%
X39000000Y-15275000D03*
X39000000Y-17000000D03*
%TD*%
D34*
%TO.C,U2*%
X88725000Y-31000000D03*
X88725000Y-31950000D03*
X88725000Y-32900000D03*
X91000000Y-32900000D03*
X91000000Y-31000000D03*
%TD*%
D18*
%TO.C,C4*%
X22000000Y-15275000D03*
X22000000Y-17000000D03*
%TD*%
D21*
%TO.C,Q3*%
X27700000Y-67000000D03*
X25800000Y-67000000D03*
X26750000Y-70000000D03*
%TD*%
D35*
%TO.C,R21*%
X58235000Y-17250000D03*
X60060000Y-17250000D03*
%TD*%
D21*
%TO.C,Q1*%
X13700000Y-67000000D03*
X11800000Y-67000000D03*
X12750000Y-70000000D03*
%TD*%
%TO.C,Q2*%
X20700000Y-67000000D03*
X18800000Y-67000000D03*
X19750000Y-70000000D03*
%TD*%
D19*
%TO.C,J5*%
X33000000Y-76000000D03*
D11*
X35000000Y-76000000D03*
%TD*%
D15*
%TO.C,R13*%
X46250000Y-69087500D03*
X46250000Y-70912500D03*
%TD*%
D33*
%TO.C,D6*%
X48350000Y-72500000D03*
X51650000Y-72500000D03*
%TD*%
D19*
%TO.C,J9*%
X50000000Y-76000000D03*
D11*
X52000000Y-76000000D03*
%TD*%
D15*
%TO.C,R10*%
X53250000Y-65500000D03*
X53250000Y-67325000D03*
%TD*%
D36*
%TO.C,J7*%
X88000000Y-7000000D03*
D37*
X83000000Y-7000000D03*
%TD*%
D13*
%TO.C,C9*%
X37500000Y-9000000D03*
D14*
X37500000Y-11500000D03*
%TD*%
D21*
%TO.C,Q7*%
X58700000Y-67000000D03*
X56800000Y-67000000D03*
X57750000Y-70000000D03*
%TD*%
D19*
%TO.C,J24*%
X87000000Y-76000000D03*
D11*
X89000000Y-76000000D03*
%TD*%
D15*
%TO.C,R9*%
X46250000Y-65500000D03*
X46250000Y-67325000D03*
%TD*%
D38*
%TO.C,D14*%
X88110000Y-17250000D03*
X86360000Y-17250000D03*
%TD*%
D30*
%TO.C,J26*%
X2900000Y-29000000D03*
D28*
X5440000Y-29000000D03*
X7980000Y-29000000D03*
X10520000Y-29000000D03*
X13060000Y-29000000D03*
X15600000Y-29000000D03*
X18140000Y-29000000D03*
X20680000Y-29000000D03*
X23220000Y-29000000D03*
X25760000Y-29000000D03*
X28300000Y-29000000D03*
X30840000Y-29000000D03*
X33380000Y-29000000D03*
X35920000Y-29000000D03*
X38460000Y-29000000D03*
X41000000Y-29000000D03*
X43540000Y-29000000D03*
X46080000Y-29000000D03*
X48620000Y-29000000D03*
X51160000Y-29000000D03*
%TD*%
D39*
%TO.C,C3*%
X89275000Y-29000000D03*
X91000000Y-29000000D03*
%TD*%
D21*
%TO.C,Q5*%
X44700000Y-67000000D03*
X42800000Y-67000000D03*
X43750000Y-70000000D03*
%TD*%
D10*
%TO.C,J13*%
X97000000Y-69000000D03*
D11*
X95000000Y-69000000D03*
X93000000Y-69000000D03*
%TD*%
D15*
%TO.C,R4*%
X36250000Y-65500000D03*
X36250000Y-67325000D03*
%TD*%
%TO.C,R5*%
X15250000Y-69087500D03*
X15250000Y-70912500D03*
%TD*%
D40*
%TO.C,R19*%
X88250000Y-69000000D03*
X86425000Y-69000000D03*
%TD*%
D18*
%TO.C,C6*%
X30452500Y-15275000D03*
X30452500Y-17000000D03*
%TD*%
D36*
%TO.C,J6*%
X76000000Y-7000000D03*
D37*
X71000000Y-7000000D03*
%TD*%
D15*
%TO.C,R8*%
X36250000Y-69087500D03*
X36250000Y-70912500D03*
%TD*%
%TO.C,R3*%
X29250000Y-65500000D03*
X29250000Y-67325000D03*
%TD*%
D13*
%TO.C,C1*%
X6000000Y-64500000D03*
D14*
X6000000Y-67000000D03*
%TD*%
D33*
%TO.C,D7*%
X55350000Y-72500000D03*
X58650000Y-72500000D03*
%TD*%
%TO.C,D8*%
X62350000Y-72500000D03*
X65650000Y-72500000D03*
%TD*%
D22*
%TO.C,U6*%
X42095000Y-20280000D03*
X43365000Y-20280000D03*
X44635000Y-20280000D03*
X45905000Y-20280000D03*
X45905000Y-15320000D03*
X44635000Y-15320000D03*
X43365000Y-15320000D03*
X42095000Y-15320000D03*
D23*
X44000000Y-17800000D03*
%TD*%
D10*
%TO.C,J14*%
X97000000Y-63000000D03*
D11*
X95000000Y-63000000D03*
X93000000Y-63000000D03*
X91000000Y-63000000D03*
%TD*%
D15*
%TO.C,R1*%
X15250000Y-65500000D03*
X15250000Y-67325000D03*
%TD*%
D16*
%TO.C,J20*%
X29452500Y-4000000D03*
D17*
X26952500Y-4000000D03*
%TD*%
D35*
%TO.C,R23*%
X82322500Y-17250000D03*
X84147500Y-17250000D03*
%TD*%
D38*
%TO.C,D12*%
X64110000Y-17250000D03*
X62360000Y-17250000D03*
%TD*%
%TO.C,D13*%
X76110000Y-17250000D03*
X74360000Y-17250000D03*
%TD*%
D35*
%TO.C,R24*%
X58175000Y-20250000D03*
X60000000Y-20250000D03*
%TD*%
D19*
%TO.C,J3*%
X19000000Y-76000000D03*
D11*
X21000000Y-76000000D03*
%TD*%
D15*
%TO.C,R2*%
X22250000Y-65500000D03*
X22250000Y-67325000D03*
%TD*%
D21*
%TO.C,Q8*%
X65700000Y-67000000D03*
X63800000Y-67000000D03*
X64750000Y-70000000D03*
%TD*%
D19*
%TO.C,J23*%
X80000000Y-76000000D03*
D11*
X82000000Y-76000000D03*
%TD*%
D15*
%TO.C,R12*%
X67250000Y-65500000D03*
X67250000Y-67325000D03*
%TD*%
D13*
%TO.C,C5*%
X20500000Y-9000000D03*
D14*
X20500000Y-11500000D03*
%TD*%
D33*
%TO.C,D2*%
X17350000Y-72500000D03*
X20650000Y-72500000D03*
%TD*%
D35*
%TO.C,R20*%
X86425000Y-67000000D03*
X88250000Y-67000000D03*
%TD*%
D20*
%TO.C,D11*%
X94350000Y-16450000D03*
X97650000Y-16450000D03*
X97650000Y-11550000D03*
X94350000Y-11550000D03*
%TD*%
D10*
%TO.C,J15*%
X97000000Y-57000000D03*
D11*
X95000000Y-57000000D03*
X93000000Y-57000000D03*
%TD*%
D40*
%TO.C,R18*%
X85825000Y-63000000D03*
X84000000Y-63000000D03*
%TD*%
D35*
%TO.C,R25*%
X62175000Y-20250000D03*
X64000000Y-20250000D03*
%TD*%
D40*
%TO.C,R17*%
X85825000Y-61000000D03*
X84000000Y-61000000D03*
%TD*%
D33*
%TO.C,D5*%
X41350000Y-72500000D03*
X44650000Y-72500000D03*
%TD*%
D16*
%TO.C,J22*%
X46500000Y-4000000D03*
D17*
X44000000Y-4000000D03*
%TD*%
D35*
%TO.C,R22*%
X70322500Y-17250000D03*
X72147500Y-17250000D03*
%TD*%
D15*
%TO.C,R14*%
X53250000Y-69087500D03*
X53250000Y-70912500D03*
%TD*%
D21*
%TO.C,Q6*%
X51700000Y-67000000D03*
X49800000Y-67000000D03*
X50750000Y-70000000D03*
%TD*%
D30*
%TO.C,J25*%
X2890000Y-57000000D03*
D28*
X5430000Y-57000000D03*
X7970000Y-57000000D03*
X10510000Y-57000000D03*
X13050000Y-57000000D03*
X15590000Y-57000000D03*
X18130000Y-57000000D03*
X20670000Y-57000000D03*
X23210000Y-57000000D03*
X25750000Y-57000000D03*
X28290000Y-57000000D03*
X30830000Y-57000000D03*
X33370000Y-57000000D03*
X35910000Y-57000000D03*
X38450000Y-57000000D03*
X40990000Y-57000000D03*
X43530000Y-57000000D03*
X46070000Y-57000000D03*
X48610000Y-57000000D03*
X51150000Y-57000000D03*
%TD*%
D10*
%TO.C,J17*%
X97000000Y-45000000D03*
D11*
X95000000Y-45000000D03*
X93000000Y-45000000D03*
%TD*%
D33*
%TO.C,D1*%
X10350000Y-72500000D03*
X13650000Y-72500000D03*
%TD*%
D36*
%TO.C,J1*%
X64000000Y-7000000D03*
D37*
X59000000Y-7000000D03*
%TD*%
D15*
%TO.C,R7*%
X29250000Y-69087500D03*
X29250000Y-70912500D03*
%TD*%
D30*
%TO.C,J27*%
X56000000Y-45540000D03*
D28*
X56000000Y-43000000D03*
X56000000Y-40460000D03*
%TD*%
D15*
%TO.C,R6*%
X22250000Y-69087500D03*
X22250000Y-70912500D03*
%TD*%
D19*
%TO.C,J2*%
X12000000Y-76000000D03*
D11*
X14000000Y-76000000D03*
%TD*%
D33*
%TO.C,D3*%
X24350000Y-72500000D03*
X27650000Y-72500000D03*
%TD*%
M02*
