%TF.GenerationSoftware,KiCad,Pcbnew,10.0.1*%
%TF.CreationDate,2026-05-03T21:23:40-04:00*%
%TF.ProjectId,pubmarine-submarine,7075626d-6172-4696-9e65-2d7375626d61,rev?*%
%TF.SameCoordinates,Original*%
%TF.FileFunction,Paste,Top*%
%TF.FilePolarity,Positive*%
%FSLAX46Y46*%
G04 Gerber Fmt 4.6, Leading zero omitted, Abs format (unit mm)*
G04 Created by KiCad (PCBNEW 10.0.1) date 2026-05-03 21:23:40*
%MOMM*%
%LPD*%
G01*
G04 APERTURE LIST*
G04 Aperture macros list*
%AMRoundRect*
0 Rectangle with rounded corners*
0 $1 Rounding radius*
0 $2 $3 $4 $5 $6 $7 $8 $9 X,Y pos of 4 corners*
0 Add a 4 corners polygon primitive as box body*
4,1,4,$2,$3,$4,$5,$6,$7,$8,$9,$2,$3,0*
0 Add four circle primitives for the rounded corners*
1,1,$1+$1,$2,$3*
1,1,$1+$1,$4,$5*
1,1,$1+$1,$6,$7*
1,1,$1+$1,$8,$9*
0 Add four rect primitives between the rounded corners*
20,1,$1+$1,$2,$3,$4,$5,0*
20,1,$1+$1,$4,$5,$6,$7,0*
20,1,$1+$1,$6,$7,$8,$9,0*
20,1,$1+$1,$8,$9,$2,$3,0*%
G04 Aperture macros list end*
%ADD10RoundRect,0.237500X-0.250000X-0.237500X0.250000X-0.237500X0.250000X0.237500X-0.250000X0.237500X0*%
%ADD11RoundRect,0.237500X0.237500X-0.300000X0.237500X0.300000X-0.237500X0.300000X-0.237500X-0.300000X0*%
%ADD12RoundRect,0.237500X-0.237500X0.300000X-0.237500X-0.300000X0.237500X-0.300000X0.237500X0.300000X0*%
%ADD13RoundRect,0.237500X-0.237500X0.250000X-0.237500X-0.250000X0.237500X-0.250000X0.237500X0.250000X0*%
%ADD14RoundRect,0.200000X-0.200000X0.750000X-0.200000X-0.750000X0.200000X-0.750000X0.200000X0.750000X0*%
%ADD15RoundRect,0.090000X0.360000X-0.660000X0.360000X0.660000X-0.360000X0.660000X-0.360000X-0.660000X0*%
%ADD16RoundRect,0.237500X-0.300000X-0.237500X0.300000X-0.237500X0.300000X0.237500X-0.300000X0.237500X0*%
%ADD17RoundRect,0.237500X0.237500X-0.250000X0.237500X0.250000X-0.237500X0.250000X-0.237500X-0.250000X0*%
%ADD18RoundRect,0.237500X0.300000X0.237500X-0.300000X0.237500X-0.300000X-0.237500X0.300000X-0.237500X0*%
%ADD19RoundRect,0.150000X-0.512500X-0.150000X0.512500X-0.150000X0.512500X0.150000X-0.512500X0.150000X0*%
%ADD20RoundRect,0.247500X0.682500X-0.247500X0.682500X0.247500X-0.682500X0.247500X-0.682500X-0.247500X0*%
%ADD21RoundRect,0.100000X0.100000X-0.687500X0.100000X0.687500X-0.100000X0.687500X-0.100000X-0.687500X0*%
%ADD22RoundRect,0.245000X0.445000X-0.245000X0.445000X0.245000X-0.445000X0.245000X-0.445000X-0.245000X0*%
%ADD23RoundRect,0.237500X0.287500X0.237500X-0.287500X0.237500X-0.287500X-0.237500X0.287500X-0.237500X0*%
%ADD24RoundRect,0.237500X0.250000X0.237500X-0.250000X0.237500X-0.250000X-0.237500X0.250000X-0.237500X0*%
%ADD25RoundRect,0.075000X-0.650000X-0.075000X0.650000X-0.075000X0.650000X0.075000X-0.650000X0.075000X0*%
G04 APERTURE END LIST*
D10*
%TO.C,R31*%
X57750000Y-26000000D03*
X59575000Y-26000000D03*
%TD*%
D11*
%TO.C,C21*%
X37943750Y-24612500D03*
X37943750Y-22887500D03*
%TD*%
D12*
%TO.C,C22*%
X47943750Y-18637500D03*
X47943750Y-20362500D03*
%TD*%
D13*
%TO.C,R33*%
X35250000Y-67587500D03*
X35250000Y-69412500D03*
%TD*%
D14*
%TO.C,Q9*%
X75950000Y-67337500D03*
X74050000Y-67337500D03*
X75000000Y-70337500D03*
%TD*%
D15*
%TO.C,D9*%
X94350000Y-32450000D03*
X97650000Y-32450000D03*
X97650000Y-27550000D03*
X94350000Y-27550000D03*
%TD*%
D16*
%TO.C,C30*%
X33137500Y-72750000D03*
X34862500Y-72750000D03*
%TD*%
D17*
%TO.C,R27*%
X76000000Y-64500000D03*
X76000000Y-62675000D03*
%TD*%
D16*
%TO.C,C31*%
X43137500Y-72750000D03*
X44862500Y-72750000D03*
%TD*%
D12*
%TO.C,C13*%
X33281250Y-18675000D03*
X33281250Y-20400000D03*
%TD*%
D16*
%TO.C,C27*%
X12137500Y-72750000D03*
X13862500Y-72750000D03*
%TD*%
D15*
%TO.C,D10*%
X94350000Y-24450000D03*
X97650000Y-24450000D03*
X97650000Y-19550000D03*
X94350000Y-19550000D03*
%TD*%
D18*
%TO.C,C4*%
X59675000Y-31490000D03*
X57950000Y-31490000D03*
%TD*%
D19*
%TO.C,U2*%
X88725000Y-31000000D03*
X88725000Y-31950000D03*
X88725000Y-32900000D03*
X91000000Y-32900000D03*
X91000000Y-31000000D03*
%TD*%
D11*
%TO.C,C25*%
X37750000Y-19612500D03*
X37750000Y-17887500D03*
%TD*%
D10*
%TO.C,R21*%
X58235000Y-17250000D03*
X60060000Y-17250000D03*
%TD*%
D20*
%TO.C,U3*%
X24250000Y-66865000D03*
X24250000Y-65635000D03*
D21*
X21975000Y-69112500D03*
X22625000Y-69112500D03*
X23275000Y-69112500D03*
X23925000Y-69112500D03*
X24575000Y-69112500D03*
X25225000Y-69112500D03*
X25875000Y-69112500D03*
X26525000Y-69112500D03*
X26525000Y-63387500D03*
X25875000Y-63387500D03*
X25225000Y-63387500D03*
X24575000Y-63387500D03*
X23925000Y-63387500D03*
X23275000Y-63387500D03*
X22625000Y-63387500D03*
X21975000Y-63387500D03*
%TD*%
D12*
%TO.C,C15*%
X21000000Y-14500000D03*
X21000000Y-16225000D03*
%TD*%
D16*
%TO.C,C5*%
X93637500Y-9500000D03*
X95362500Y-9500000D03*
%TD*%
D22*
%TO.C,U11*%
X42088750Y-22110000D03*
X43798750Y-22110000D03*
X42088750Y-20890000D03*
X43798750Y-20890000D03*
D21*
X39368750Y-24362500D03*
X40018750Y-24362500D03*
X40668750Y-24362500D03*
X41318750Y-24362500D03*
X41968750Y-24362500D03*
X42618750Y-24362500D03*
X43268750Y-24362500D03*
X43918750Y-24362500D03*
X44568750Y-24362500D03*
X45218750Y-24362500D03*
X45868750Y-24362500D03*
X46518750Y-24362500D03*
X46518750Y-18637500D03*
X45868750Y-18637500D03*
X45218750Y-18637500D03*
X44568750Y-18637500D03*
X43918750Y-18637500D03*
X43268750Y-18637500D03*
X42618750Y-18637500D03*
X41968750Y-18637500D03*
X41318750Y-18637500D03*
X40668750Y-18637500D03*
X40018750Y-18637500D03*
X39368750Y-18637500D03*
%TD*%
D20*
%TO.C,U4*%
X54500000Y-66865000D03*
X54500000Y-65635000D03*
D21*
X52225000Y-69112500D03*
X52875000Y-69112500D03*
X53525000Y-69112500D03*
X54175000Y-69112500D03*
X54825000Y-69112500D03*
X55475000Y-69112500D03*
X56125000Y-69112500D03*
X56775000Y-69112500D03*
X56775000Y-63387500D03*
X56125000Y-63387500D03*
X55475000Y-63387500D03*
X54825000Y-63387500D03*
X54175000Y-63387500D03*
X53525000Y-63387500D03*
X52875000Y-63387500D03*
X52225000Y-63387500D03*
%TD*%
D12*
%TO.C,C37*%
X59500000Y-63137500D03*
X59500000Y-64862500D03*
%TD*%
D11*
%TO.C,C16*%
X23087500Y-19650000D03*
X23087500Y-17925000D03*
%TD*%
D16*
%TO.C,C18*%
X28772500Y-14537500D03*
X30497500Y-14537500D03*
%TD*%
%TO.C,C28*%
X19137500Y-72750000D03*
X20862500Y-72750000D03*
%TD*%
D23*
%TO.C,D14*%
X76110000Y-17250000D03*
X74360000Y-17250000D03*
%TD*%
D24*
%TO.C,R28*%
X7412500Y-26750000D03*
X5587500Y-26750000D03*
%TD*%
D16*
%TO.C,C3*%
X89275000Y-29000000D03*
X91000000Y-29000000D03*
%TD*%
D25*
%TO.C,U9*%
X56837500Y-27745000D03*
X56837500Y-28245000D03*
X56837500Y-28745000D03*
X56837500Y-29245000D03*
X56837500Y-29745000D03*
X61137500Y-29745000D03*
X61137500Y-29245000D03*
X61137500Y-28745000D03*
X61137500Y-28245000D03*
X61137500Y-27745000D03*
%TD*%
D16*
%TO.C,C19*%
X43435000Y-14500000D03*
X45160000Y-14500000D03*
%TD*%
D12*
%TO.C,C6*%
X77745000Y-56312500D03*
X77745000Y-58037500D03*
%TD*%
D24*
%TO.C,R19*%
X88250000Y-69000000D03*
X86425000Y-69000000D03*
%TD*%
D16*
%TO.C,C34*%
X64137500Y-72750000D03*
X65862500Y-72750000D03*
%TD*%
%TO.C,C32*%
X50137500Y-72750000D03*
X51862500Y-72750000D03*
%TD*%
D17*
%TO.C,R32*%
X47943750Y-24750000D03*
X47943750Y-22925000D03*
%TD*%
D10*
%TO.C,R23*%
X70322500Y-17250000D03*
X72147500Y-17250000D03*
%TD*%
D23*
%TO.C,D12*%
X64110000Y-17250000D03*
X62360000Y-17250000D03*
%TD*%
%TO.C,D13*%
X87890000Y-17250000D03*
X86140000Y-17250000D03*
%TD*%
D17*
%TO.C,R29*%
X33281250Y-24787500D03*
X33281250Y-22962500D03*
%TD*%
D10*
%TO.C,R30*%
X14837500Y-28000000D03*
X16662500Y-28000000D03*
%TD*%
D22*
%TO.C,U10*%
X27426250Y-22147500D03*
X29136250Y-22147500D03*
X27426250Y-20927500D03*
X29136250Y-20927500D03*
D21*
X24706250Y-24400000D03*
X25356250Y-24400000D03*
X26006250Y-24400000D03*
X26656250Y-24400000D03*
X27306250Y-24400000D03*
X27956250Y-24400000D03*
X28606250Y-24400000D03*
X29256250Y-24400000D03*
X29906250Y-24400000D03*
X30556250Y-24400000D03*
X31206250Y-24400000D03*
X31856250Y-24400000D03*
X31856250Y-18675000D03*
X31206250Y-18675000D03*
X30556250Y-18675000D03*
X29906250Y-18675000D03*
X29256250Y-18675000D03*
X28606250Y-18675000D03*
X27956250Y-18675000D03*
X27306250Y-18675000D03*
X26656250Y-18675000D03*
X26006250Y-18675000D03*
X25356250Y-18675000D03*
X24706250Y-18675000D03*
%TD*%
D10*
%TO.C,R24*%
X58175000Y-20250000D03*
X60000000Y-20250000D03*
%TD*%
D11*
%TO.C,C14*%
X22500000Y-16225000D03*
X22500000Y-14500000D03*
%TD*%
D16*
%TO.C,C20*%
X16637500Y-12000000D03*
X18362500Y-12000000D03*
%TD*%
D11*
%TO.C,C23*%
X37750000Y-16112500D03*
X37750000Y-14387500D03*
%TD*%
D10*
%TO.C,R20*%
X86425000Y-67000000D03*
X88250000Y-67000000D03*
%TD*%
D15*
%TO.C,D11*%
X94350000Y-16450000D03*
X97650000Y-16450000D03*
X97650000Y-11550000D03*
X94350000Y-11550000D03*
%TD*%
D24*
%TO.C,R18*%
X85825000Y-63000000D03*
X84000000Y-63000000D03*
%TD*%
D10*
%TO.C,R25*%
X62175000Y-20250000D03*
X64000000Y-20250000D03*
%TD*%
D12*
%TO.C,C24*%
X36250000Y-15137500D03*
X36250000Y-16862500D03*
%TD*%
D24*
%TO.C,R17*%
X85825000Y-61000000D03*
X84000000Y-61000000D03*
%TD*%
D10*
%TO.C,R22*%
X82102500Y-17250000D03*
X83927500Y-17250000D03*
%TD*%
D12*
%TO.C,C36*%
X27750000Y-63137500D03*
X27750000Y-64862500D03*
%TD*%
D16*
%TO.C,C29*%
X26137500Y-72750000D03*
X27862500Y-72750000D03*
%TD*%
D13*
%TO.C,R26*%
X74000000Y-62675000D03*
X74000000Y-64500000D03*
%TD*%
D16*
%TO.C,C33*%
X57137500Y-72750000D03*
X58862500Y-72750000D03*
%TD*%
D12*
%TO.C,C38*%
X58000000Y-63137500D03*
X58000000Y-64862500D03*
%TD*%
D11*
%TO.C,C12*%
X23281250Y-24650000D03*
X23281250Y-22925000D03*
%TD*%
D12*
%TO.C,C35*%
X29250000Y-63137500D03*
X29250000Y-64862500D03*
%TD*%
M02*
